<svg xmlns="http://www.w3.org/2000/svg" viewBox="0 0 64 64" width="64" height="64">
  <defs>
    <linearGradient id="p3d1" x1="0%" y1="0%" x2="100%" y2="100%">
      <stop offset="0%" stop-color="#00B4F0"/>
      <stop offset="50%" stop-color="#7928CA"/>
      <stop offset="100%" stop-color="#FF0080"/>
    </linearGradient>
    <linearGradient id="p3d2" x1="0%" y1="100%" x2="100%" y2="0%">
      <stop offset="0%" stop-color="#FF8008"/>
      <stop offset="100%" stop-color="#FFC837"/>
    </linearGradient>
    <filter id="p3d-shadow" x="-10%" y="-10%" width="130%" height="130%">
      <feDropShadow dx="0" dy="3" stdDeviation="3" flood-opacity="0.35"/>
    </filter>
  </defs>
  <g filter="url(#p3d-shadow)">
    <path d="M32 6 C18 18 10 32 10 44 C10 54 18 60 28 60 C36 60 42 55 45 48 C48 42 46 36 41 33 C37 30 33 26 34 22 C35 18 42 16 46 22 C50 28 54 36 54 44 C54 55 46 62 34 62" fill="none" stroke="url(#p3d1)" stroke-width="9" stroke-linecap="round" stroke-linejoin="round"/>
    <circle cx="42" cy="20" r="5" fill="url(#p3d2)"/>
  </g>
</svg>
