<svg xmlns="http://www.w3.org/2000/svg" viewBox="0 0 64 64" width="64" height="64">
  <defs>
    <linearGradient id="xbx1" x1="0%" y1="0%" x2="100%" y2="100%">
      <stop offset="0%" stop-color="#107C10"/>
      <stop offset="100%" stop-color="#0B530B"/>
    </linearGradient>
    <linearGradient id="xbx2" x1="0%" y1="0%" x2="0%" y2="100%">
      <stop offset="0%" stop-color="#FFFFFF"/>
      <stop offset="100%" stop-color="#E2E8F0"/>
    </linearGradient>
  </defs>
  <circle cx="32" cy="32" r="26" fill="url(#xbx1)"/>
  <path d="M23 15 C26 13 29 12 32 12 C35 12 38 13 41 15 C39 19 36 25 32 31 C28 25 25 19 23 15 Z" fill="url(#xbx2)"/>
  <path d="M16 22 C13 26 12 29 12 33 C12 39 15 45 20 48 C21 44 24 37 28 32 C23 27 18 24 16 22 Z" fill="url(#xbx2)"/>
  <path d="M48 22 C51 26 52 29 52 33 C52 39 49 45 44 48 C43 44 40 37 36 32 C41 27 46 24 48 22 Z" fill="url(#xbx2)"/>
</svg>
